<?xml version="1.0" standalone="no"?><!DOCTYPE svg PUBLIC "-//W3C//DTD SVG 1.1//EN" "http://www.w3.org/Graphics/SVG/1.1/DTD/svg11.dtd"><svg t="1503022905107" class="icon" style="" viewBox="0 0 1024 1024" version="1.1" xmlns="http://www.w3.org/2000/svg" p-id="1667" xmlns:xlink="http://www.w3.org/1999/xlink" width="200" height="200"><defs><style type="text/css"></style></defs><path d="M917.090768 3.903876L429.874298 139.387557c-59.006119 15.35951-106.876593 71.293728-106.876594 124.988016V731.496684s-35.262876-21.567313-113.916368-11.519633C93.629016 735.016571 0 815.590003 0 900.06731s93.629016 136.315655 209.081336 121.404131c115.580316-14.847527 200.249617-92.925038 200.249617-177.466344V445.041814c0-37.502805 49.534421-53.566293 49.534421-53.566292L889.635643 268.791432s47.67848-14.527537 47.67848 25.599184V614.636408s-43.902601-22.975268-122.556093-14.271545c-115.45232 12.735594-209.081336 91.581081-209.081336 176.058389 0 84.605303 93.629016 138.107598 209.081336 125.308005C930.338345 889.123659 1023.967361 810.278172 1023.967361 725.736867V73.341662c0-53.630291-47.870474-84.733299-106.876593-69.437786z" fill="#2c2c2c" p-id="1668"></path></svg>