<?xml version="1.0" standalone="no"?><!DOCTYPE svg PUBLIC "-//W3C//DTD SVG 1.1//EN" "http://www.w3.org/Graphics/SVG/1.1/DTD/svg11.dtd"><svg t="1503023244644" class="icon" style="" viewBox="0 0 1024 1024" version="1.1" xmlns="http://www.w3.org/2000/svg" p-id="7278" xmlns:xlink="http://www.w3.org/1999/xlink" width="200" height="200"><defs><style type="text/css"></style></defs><path d="M843.889 984.96c0.399 0.007 0.87 0.011 1.342 0.011 44.444 0 80.579-35.572 81.488-79.798l0.001-798.759c0-47.918-33.132-79.872-82.83-79.872-0.397-0.007-0.867-0.011-1.337-0.011-44.443 0-80.577 35.572-81.483 79.798l-0.001 798.758c0 47.923 33.132 79.872 82.821 79.872zM123.28 561.664l414.147 407.322c33.132 31.948 57.984 23.962 57.984-23.962v-886.528c0-47.918-24.852-55.91-57.984-23.962l-422.426 407.322c-24.852 39.936-24.852 87.859 8.279 119.808z" fill="#8F8F8F" p-id="7279"></path></svg>